<?xml version="1.0" encoding="UTF-8" standalone="no"?>
<svg xmlns="http://www.w3.org/2000/svg" width="240" height="80" viewBox="0 0 240 80">
  <style>
    .logo-text { font-family: 'Pathway Gothic One', sans-serif; font-size: 24px; fill: #0B3B60; font-weight: bold; }
    .sub-text { font-family: 'Open Sans', sans-serif; font-size: 14px; fill: #E32726; font-weight: bold; }
  </style>
  
  <!-- Paw icon -->
  <path fill="#E32726" d="M30,20 c3,0 5,2 5,5 c0,3 -2,5 -5,5 c-3,0 -5,-2 -5,-5 c0,-3 2,-5 5,-5 z"/>
  <path fill="#E32726" d="M20,25 c3,0 5,2 5,5 c0,3 -2,5 -5,5 c-3,0 -5,-2 -5,-5 c0,-3 2,-5 5,-5 z"/>
  <path fill="#E32726" d="M40,25 c3,0 5,2 5,5 c0,3 -2,5 -5,5 c-3,0 -5,-2 -5,-5 c0,-3 2,-5 5,-5 z"/>
  <path fill="#E32726" d="M30,40 c8,0 15,4 15,10 c0,6 -7,10 -15,10 c-8,0 -15,-4 -15,-10 c0,-6 7,-10 15,-10 z"/>
  
  <!-- Company name -->
  <text x="60" y="40" class="logo-text">PETS TRAVEL</text>
  <text x="60" y="60" class="sub-text">INTERNATIONAL</text>
</svg>
