<svg xmlns="http://www.w3.org/2000/svg" xmlns:xlink="http://www.w3.org/1999/xlink" width="1920" height="600" viewBox="0 0 1920 600">
  <defs>
    <linearGradient id="bg-gradient" x1="0%" y1="0%" x2="100%" y2="100%">
      <stop offset="0%" style="stop-color:#004558;stop-opacity:1" />
      <stop offset="100%" style="stop-color:#001a22;stop-opacity:1" />
    </linearGradient>
    <pattern id="pattern-paws" x="0" y="0" width="100" height="100" patternUnits="userSpaceOnUse">
      <path d="M30,10 C33,7 37,7 40,10 C43,13 43,17 40,20 C37,23 33,23 30,20 C27,17 27,13 30,10 Z" fill="#c7352c" fill-opacity="0.2" />
      <path d="M50,30 C53,27 57,27 60,30 C63,33 63,37 60,40 C57,43 53,43 50,40 C47,37 47,33 50,30 Z" fill="#c7352c" fill-opacity="0.2" />
      <path d="M70,10 C73,7 77,7 80,10 C83,13 83,17 80,20 C77,23 73,23 70,20 C67,17 67,13 70,10 Z" fill="#c7352c" fill-opacity="0.2" />
      <path d="M60,60 C68,52 82,52 90,60 C98,68 98,82 90,90 C82,98 68,98 60,90 C52,82 52,68 60,60 Z" fill="#c7352c" fill-opacity="0.2" />
    </pattern>
  </defs>
  <rect width="1920" height="600" fill="url(#bg-gradient)" />
  <rect width="1920" height="600" fill="url(#pattern-paws)" />
  
  <!-- World Map Outline -->
  <path d="M400,200 C500,180 600,190 700,200 C800,210 900,220 1000,210 C1100,200 1200,180 1300,190 C1400,200 1500,220 1600,210" 
        stroke="white" stroke-width="2" fill="none" stroke-opacity="0.3" />
  
  <!-- Route Line -->
  <path d="M500,300 C700,280 900,320 1100,280 C1300,240 1500,300 1700,280" 
        stroke="#c7352c" stroke-width="4" fill="none" stroke-dasharray="10,5" />
  
  <!-- Location Markers -->
  <circle cx="500" cy="300" r="10" fill="#c7352c" />
  <circle cx="900" cy="320" r="10" fill="#c7352c" />
  <circle cx="1300" cy="240" r="10" fill="#c7352c" />
  <circle cx="1700" cy="280" r="10" fill="#c7352c" />
  
  <!-- Airplane Silhouette -->
  <path d="M1100,180 L1120,170 L1150,170 L1170,180 L1150,190 L1120,190 Z" fill="white" fill-opacity="0.6" />
  <path d="M1135,175 L1145,165 L1155,175 L1145,185 Z" fill="white" fill-opacity="0.6" />
</svg>
